<svg width="24" height="24" viewBox="0 0 24 24" fill="none" xmlns="http://www.w3.org/2000/svg">
<g clip-path="url(#clip0_2_3210)">
<rect width="24" height="24" rx="12" fill="#EDEDED"/>
<path fill-rule="evenodd" clip-rule="evenodd" d="M9.88432 8.88431C9.97027 8.79838 10.0868 8.75011 10.2084 8.75011C10.3299 8.75011 10.4464 8.79838 10.5324 8.88431L12.5 10.8519L14.4676 8.88431C14.5099 8.84053 14.5605 8.80562 14.6164 8.7816C14.6723 8.75757 14.7325 8.74493 14.7933 8.7444C14.8542 8.74387 14.9146 8.75547 14.9709 8.77852C15.0272 8.80156 15.0784 8.83559 15.1214 8.87863C15.1644 8.92166 15.1985 8.97284 15.2215 9.02916C15.2446 9.08549 15.2562 9.14584 15.2556 9.2067C15.2551 9.26756 15.2425 9.3277 15.2184 9.38362C15.1944 9.43954 15.1595 9.49011 15.1157 9.53239L13.1481 11.5L15.1157 13.4676C15.1992 13.5541 15.2454 13.6699 15.2444 13.79C15.2433 13.9102 15.1951 14.0252 15.1101 14.1101C15.0252 14.1951 14.9102 14.2433 14.79 14.2444C14.6699 14.2454 14.5541 14.1992 14.4676 14.1157L12.5 12.1481L10.5324 14.1157C10.446 14.1992 10.3302 14.2454 10.21 14.2444C10.0898 14.2433 9.97488 14.1951 9.8899 14.1101C9.80492 14.0252 9.75672 13.9102 9.75567 13.79C9.75463 13.6699 9.80083 13.5541 9.88432 13.4676L11.8519 11.5L9.88432 9.53239C9.79839 9.44644 9.75012 9.32988 9.75012 9.20835C9.75012 9.08682 9.79839 8.97026 9.88432 8.88431Z" fill="#252C32"/>
</g>
<defs>
<clipPath id="clip0_2_3210">
<rect width="24" height="24" rx="12" fill="white"/>
</clipPath>
</defs>
</svg>
